<svg width="79" height="14" viewBox="0 0 79 14" fill="none" xmlns="http://www.w3.org/2000/svg">
<path d="M9.396 13C9.396 12.724 9.318 12.496 9.162 12.316C9.006 12.124 8.802 12.028 8.55 12.028C8.31 12.028 8.058 12.13 7.794 12.334C7.542 12.538 7.242 12.748 6.894 12.964C6.558 13.168 6.15 13.27 5.67 13.27C4.038 13.27 2.772 12.85 1.872 12.01C0.984 11.17 0.54 9.88 0.54 8.14C0.54 4.504 2.238 2.686 5.634 2.686C6.246 2.686 6.87 2.836 7.506 3.136C8.154 3.436 8.55 3.586 8.694 3.586C8.838 3.586 8.958 3.514 9.054 3.37C9.15 3.214 9.198 3.064 9.198 2.92H9.54V6.574H9.18C9.18 5.662 8.82 4.846 8.1 4.126C7.392 3.406 6.57 3.046 5.634 3.046C4.914 3.046 4.368 3.436 3.996 4.216C3.624 4.984 3.438 6.262 3.438 8.05C3.438 9.826 3.624 11.08 3.996 11.812C4.38 12.544 4.938 12.91 5.67 12.91C6.822 12.91 7.398 11.884 7.398 9.832V8.5H6.264V8.14H10.584V8.5H9.738V13H9.396ZM14.6412 11.92C14.9052 12.52 15.3612 12.82 16.0092 12.82C16.6572 12.82 17.1192 12.514 17.3952 11.902C17.6712 11.29 17.8092 10.282 17.8092 8.878C17.8092 7.462 17.6712 6.448 17.3952 5.836C17.1192 5.212 16.6572 4.9 16.0092 4.9C15.3612 4.9 14.9052 5.212 14.6412 5.836C14.3772 6.448 14.2452 7.462 14.2452 8.878C14.2452 10.294 14.3772 11.308 14.6412 11.92ZM15.9732 13.18C14.8332 13.18 13.8012 12.808 12.8772 12.064C11.9532 11.32 11.4912 10.264 11.4912 8.896C11.4912 8.164 11.6232 7.51 11.8872 6.934C12.1632 6.358 12.5232 5.902 12.9672 5.566C13.4232 5.23 13.9092 4.978 14.4252 4.81C14.9412 4.63 15.4692 4.54 16.0092 4.54C16.5492 4.54 17.0772 4.63 17.5932 4.81C18.1212 4.978 18.6072 5.23 19.0512 5.566C19.5072 5.902 19.8732 6.358 20.1492 6.934C20.4252 7.51 20.5632 8.158 20.5632 8.878C20.5632 9.598 20.4252 10.24 20.1492 10.804C19.8732 11.368 19.5072 11.818 19.0512 12.154C18.1392 12.838 17.1132 13.18 15.9732 13.18ZM21.8313 9.436V8.068H24.9093V9.436H21.8313Z" fill="#23608C"/>
<path d="M39.2009 3.28H38.3009V12.64H39.2009V13H34.7009V12.64H35.6009V3.946L32.0369 13.18H31.6229L27.6269 3.694V12.64H29.0669V13H26.1869V12.64H27.2669V3.28H26.1689V2.92H30.1829L32.9909 9.67L35.6009 2.92H39.2009V3.28ZM49.1941 12.64C49.0741 12.76 48.8461 12.868 48.5101 12.964C48.1741 13.048 47.7841 13.09 47.3401 13.09C46.3561 13.09 45.7381 12.796 45.4861 12.208C44.8861 12.832 43.9681 13.144 42.7321 13.144C42.0721 13.144 41.5261 12.994 41.0941 12.694C40.6741 12.382 40.4641 11.926 40.4641 11.326C40.4641 10.522 40.7761 9.904 41.4001 9.472C42.0241 9.028 43.1161 8.716 44.6761 8.536L45.3961 8.446V7.564C45.3961 6.52 45.3181 5.818 45.1621 5.458C45.0061 5.098 44.6941 4.918 44.2261 4.918C43.7701 4.918 43.4761 4.984 43.3441 5.116C43.2121 5.236 43.1641 5.38 43.2001 5.548C43.2361 5.704 43.2961 5.914 43.3801 6.178C43.4641 6.442 43.5061 6.652 43.5061 6.808C43.5061 7.18 43.3741 7.498 43.1101 7.762C42.8581 8.014 42.5461 8.14 42.1741 8.14C41.8141 8.14 41.5021 8.014 41.2381 7.762C40.9741 7.498 40.8421 7.18 40.8421 6.808C40.8421 6.196 41.1541 5.674 41.7781 5.242C42.4141 4.798 43.3561 4.576 44.6041 4.576C45.8641 4.576 46.7581 4.822 47.2861 5.314C47.8261 5.806 48.0961 6.676 48.0961 7.924V11.164C48.0961 11.8 48.1741 12.202 48.3301 12.37C48.4861 12.526 48.7741 12.556 49.1941 12.46V12.64ZM42.9661 10.966C43.0261 11.422 43.1941 11.776 43.4701 12.028C43.7461 12.268 44.0641 12.388 44.4241 12.388C44.7961 12.388 45.1201 12.208 45.3961 11.848V8.788L44.7481 8.878C44.1961 8.95 43.7461 9.16 43.3981 9.508C43.0621 9.856 42.9181 10.342 42.9661 10.966ZM53.8727 12.64H54.7727V13H50.2727V12.64H51.1727V5.08H50.4527V4.72H53.8727V12.64ZM54.0347 2.344C54.0347 2.776 53.8787 3.148 53.5667 3.46C53.2667 3.76 52.8947 3.91 52.4507 3.91C52.0187 3.91 51.6467 3.76 51.3347 3.46C51.0227 3.148 50.8667 2.776 50.8667 2.344C50.8667 1.9 51.0227 1.522 51.3347 1.21C51.6467 0.897999 52.0187 0.741999 52.4507 0.741999C52.8947 0.741999 53.2667 0.897999 53.5667 1.21C53.8787 1.522 54.0347 1.9 54.0347 2.344ZM59.6384 12.64H60.5384V13H56.0384V12.64H56.9384V1.3H56.0384V0.94H59.6384V12.64ZM69.76 9.4H64.324C64.444 11.512 65.266 12.568 66.79 12.568C67.198 12.568 67.66 12.472 68.176 12.28C68.704 12.088 69.088 11.818 69.328 11.47L69.58 11.65C69.316 12.094 68.866 12.46 68.23 12.748C67.594 13.036 66.958 13.18 66.322 13.18C65.698 13.18 65.134 13.12 64.63 13C64.126 12.868 63.634 12.652 63.154 12.352C62.674 12.052 62.296 11.602 62.02 11.002C61.756 10.402 61.624 9.676 61.624 8.824C61.624 7.372 62.026 6.298 62.83 5.602C63.634 4.894 64.606 4.54 65.746 4.54C66.898 4.54 67.852 4.924 68.608 5.692C69.376 6.46 69.76 7.696 69.76 9.4ZM64.306 9.04H67.24C67.24 7.936 67.12 6.97 66.88 6.142C66.652 5.314 66.28 4.9 65.764 4.9C65.248 4.9 64.876 5.302 64.648 6.106C64.42 6.898 64.306 7.81 64.306 8.842V9.04ZM75.5677 13H71.0677V12.64H71.9677V5.08H71.0677V4.72H74.6677V6.862C74.7757 6.274 74.9677 5.794 75.2437 5.422C75.5317 5.05 75.8437 4.804 76.1797 4.684C76.5277 4.564 76.8577 4.504 77.1697 4.504C77.4937 4.504 77.7997 4.564 78.0877 4.684C78.3877 4.792 78.6097 5.02 78.7537 5.368C78.8977 5.704 78.9037 6.046 78.7717 6.394C78.6397 6.73 78.4057 6.97 78.0697 7.114C77.7457 7.258 77.4457 7.276 77.1697 7.168C76.8937 7.06 76.6957 6.916 76.5757 6.736C76.4557 6.544 76.3717 6.364 76.3237 6.196C76.2037 5.752 76.0417 5.53 75.8377 5.53C75.6097 5.53 75.3577 5.926 75.0817 6.718C74.8057 7.498 74.6677 8.326 74.6677 9.202V12.64H75.5677V13Z" fill="#FF7F08"/>
</svg>
