<svg width="87" height="22" viewBox="0 0 87 22" fill="none" xmlns="http://www.w3.org/2000/svg">
<g clip-path="url(#clip0)">
<path d="M12.396 16C12.396 15.724 12.318 15.496 12.162 15.316C12.006 15.124 11.802 15.028 11.55 15.028C11.31 15.028 11.058 15.13 10.794 15.334C10.542 15.538 10.242 15.748 9.894 15.964C9.558 16.168 9.15 16.27 8.67 16.27C7.038 16.27 5.772 15.85 4.872 15.01C3.984 14.17 3.54 12.88 3.54 11.14C3.54 7.504 5.238 5.686 8.634 5.686C9.246 5.686 9.87 5.836 10.506 6.136C11.154 6.436 11.55 6.586 11.694 6.586C11.838 6.586 11.958 6.514 12.054 6.37C12.15 6.214 12.198 6.064 12.198 5.92H12.54V9.574H12.18C12.18 8.662 11.82 7.846 11.1 7.126C10.392 6.406 9.57 6.046 8.634 6.046C7.914 6.046 7.368 6.436 6.996 7.216C6.624 7.984 6.438 9.262 6.438 11.05C6.438 12.826 6.624 14.08 6.996 14.812C7.38 15.544 7.938 15.91 8.67 15.91C9.822 15.91 10.398 14.884 10.398 12.832V11.5H9.264V11.14H13.584V11.5H12.738V16H12.396ZM17.6412 14.92C17.9052 15.52 18.3612 15.82 19.0092 15.82C19.6572 15.82 20.1192 15.514 20.3952 14.902C20.6712 14.29 20.8092 13.282 20.8092 11.878C20.8092 10.462 20.6712 9.448 20.3952 8.836C20.1192 8.212 19.6572 7.9 19.0092 7.9C18.3612 7.9 17.9052 8.212 17.6412 8.836C17.3772 9.448 17.2452 10.462 17.2452 11.878C17.2452 13.294 17.3772 14.308 17.6412 14.92ZM18.9732 16.18C17.8332 16.18 16.8012 15.808 15.8772 15.064C14.9532 14.32 14.4912 13.264 14.4912 11.896C14.4912 11.164 14.6232 10.51 14.8872 9.934C15.1632 9.358 15.5232 8.902 15.9672 8.566C16.4232 8.23 16.9092 7.978 17.4252 7.81C17.9412 7.63 18.4692 7.54 19.0092 7.54C19.5492 7.54 20.0772 7.63 20.5932 7.81C21.1212 7.978 21.6072 8.23 22.0512 8.566C22.5072 8.902 22.8732 9.358 23.1492 9.934C23.4252 10.51 23.5632 11.158 23.5632 11.878C23.5632 12.598 23.4252 13.24 23.1492 13.804C22.8732 14.368 22.5072 14.818 22.0512 15.154C21.1392 15.838 20.1132 16.18 18.9732 16.18ZM24.8313 12.436V11.068H27.9093V12.436H24.8313Z" fill="white"/>
<path d="M42.2009 6.28H41.3009V15.64H42.2009V16H37.7009V15.64H38.6009V6.946L35.0369 16.18H34.6229L30.6269 6.694V15.64H32.0669V16H29.1869V15.64H30.2669V6.28H29.1689V5.92H33.1829L35.9909 12.67L38.6009 5.92H42.2009V6.28ZM52.1941 15.64C52.0741 15.76 51.8461 15.868 51.5101 15.964C51.1741 16.048 50.7841 16.09 50.3401 16.09C49.3561 16.09 48.7381 15.796 48.4861 15.208C47.8861 15.832 46.9681 16.144 45.7321 16.144C45.0721 16.144 44.5261 15.994 44.0941 15.694C43.6741 15.382 43.4641 14.926 43.4641 14.326C43.4641 13.522 43.7761 12.904 44.4001 12.472C45.0241 12.028 46.1161 11.716 47.6761 11.536L48.3961 11.446V10.564C48.3961 9.52 48.3181 8.818 48.1621 8.458C48.0061 8.098 47.6941 7.918 47.2261 7.918C46.7701 7.918 46.4761 7.984 46.3441 8.116C46.2121 8.236 46.1641 8.38 46.2001 8.548C46.2361 8.704 46.2961 8.914 46.3801 9.178C46.4641 9.442 46.5061 9.652 46.5061 9.808C46.5061 10.18 46.3741 10.498 46.1101 10.762C45.8581 11.014 45.5461 11.14 45.1741 11.14C44.8141 11.14 44.5021 11.014 44.2381 10.762C43.9741 10.498 43.8421 10.18 43.8421 9.808C43.8421 9.196 44.1541 8.674 44.7781 8.242C45.4141 7.798 46.3561 7.576 47.6041 7.576C48.8641 7.576 49.7581 7.822 50.2861 8.314C50.8261 8.806 51.0961 9.676 51.0961 10.924V14.164C51.0961 14.8 51.1741 15.202 51.3301 15.37C51.4861 15.526 51.7741 15.556 52.1941 15.46V15.64ZM45.9661 13.966C46.0261 14.422 46.1941 14.776 46.4701 15.028C46.7461 15.268 47.0641 15.388 47.4241 15.388C47.7961 15.388 48.1201 15.208 48.3961 14.848V11.788L47.7481 11.878C47.1961 11.95 46.7461 12.16 46.3981 12.508C46.0621 12.856 45.9181 13.342 45.9661 13.966ZM56.8727 15.64H57.7727V16H53.2727V15.64H54.1727V8.08H53.4527V7.72H56.8727V15.64ZM57.0347 5.344C57.0347 5.776 56.8787 6.148 56.5667 6.46C56.2667 6.76 55.8947 6.91 55.4507 6.91C55.0187 6.91 54.6467 6.76 54.3347 6.46C54.0227 6.148 53.8667 5.776 53.8667 5.344C53.8667 4.9 54.0227 4.522 54.3347 4.21C54.6467 3.898 55.0187 3.742 55.4507 3.742C55.8947 3.742 56.2667 3.898 56.5667 4.21C56.8787 4.522 57.0347 4.9 57.0347 5.344ZM62.6384 15.64H63.5384V16H59.0384V15.64H59.9384V4.3H59.0384V3.94H62.6384V15.64ZM72.76 12.4H67.324C67.444 14.512 68.266 15.568 69.79 15.568C70.198 15.568 70.66 15.472 71.176 15.28C71.704 15.088 72.088 14.818 72.328 14.47L72.58 14.65C72.316 15.094 71.866 15.46 71.23 15.748C70.594 16.036 69.958 16.18 69.322 16.18C68.698 16.18 68.134 16.12 67.63 16C67.126 15.868 66.634 15.652 66.154 15.352C65.674 15.052 65.296 14.602 65.02 14.002C64.756 13.402 64.624 12.676 64.624 11.824C64.624 10.372 65.026 9.298 65.83 8.602C66.634 7.894 67.606 7.54 68.746 7.54C69.898 7.54 70.852 7.924 71.608 8.692C72.376 9.46 72.76 10.696 72.76 12.4ZM67.306 12.04H70.24C70.24 10.936 70.12 9.97 69.88 9.142C69.652 8.314 69.28 7.9 68.764 7.9C68.248 7.9 67.876 8.302 67.648 9.106C67.42 9.898 67.306 10.81 67.306 11.842V12.04ZM78.5677 16H74.0677V15.64H74.9677V8.08H74.0677V7.72H77.6677V9.862C77.7757 9.274 77.9677 8.794 78.2437 8.422C78.5317 8.05 78.8437 7.804 79.1797 7.684C79.5277 7.564 79.8577 7.504 80.1697 7.504C80.4937 7.504 80.7997 7.564 81.0877 7.684C81.3877 7.792 81.6097 8.02 81.7537 8.368C81.8977 8.704 81.9037 9.046 81.7717 9.394C81.6397 9.73 81.4057 9.97 81.0697 10.114C80.7457 10.258 80.4457 10.276 80.1697 10.168C79.8937 10.06 79.6957 9.916 79.5757 9.736C79.4557 9.544 79.3717 9.364 79.3237 9.196C79.2037 8.752 79.0417 8.53 78.8377 8.53C78.6097 8.53 78.3577 8.926 78.0817 9.718C77.8057 10.498 77.6677 11.326 77.6677 12.202V15.64H78.5677V16Z" fill="#FF7F08"/>
</g>
<defs>
<clipPath id="clip0">
<rect width="87" height="22" fill="white"/>
</clipPath>
</defs>
</svg>
