<svg width="97" height="19" viewBox="0 0 97 19" fill="none" xmlns="http://www.w3.org/2000/svg">
<path d="M12.18 16.5C11.5133 16.7 10.8133 16.8667 10.08 17C9.34667 17.1467 8.58 17.22 7.78 17.22C6.62 17.22 5.60667 17.0467 4.74 16.7C3.88667 16.34 3.17333 15.8533 2.6 15.24C2.04 14.6267 1.62 13.9133 1.34 13.1C1.06 12.2867 0.92 11.4267 0.92 10.52C0.92 9.56 1.06667 8.66667 1.36 7.84C1.66667 7.01333 2.11333 6.29333 2.7 5.68C3.28667 5.06667 4.01333 4.58667 4.88 4.24C5.74667 3.88 6.75333 3.7 7.9 3.7C8.15333 3.7 8.44667 3.71333 8.78 3.74C9.12667 3.76667 9.48667 3.81333 9.86 3.88C10.2333 3.94667 10.6133 4.04 11 4.16C11.4 4.26667 11.78 4.40667 12.14 4.58L12.18 4.76L11.84 6.94H10.94L10.86 6.88C10.7933 6.42667 10.52 6.06 10.04 5.78C9.57333 5.48667 8.82667 5.34 7.8 5.34C7.16 5.34 6.59333 5.4 6.1 5.52C5.62 5.62667 5.17333 5.84 4.76 6.16C4.46667 6.38667 4.22667 6.66 4.04 6.98C3.85333 7.28667 3.70667 7.62667 3.6 8C3.49333 8.37333 3.42 8.76667 3.38 9.18C3.34 9.59333 3.32 10.0067 3.32 10.42C3.32 11.2333 3.42667 11.96 3.64 12.6C3.86667 13.24 4.17333 13.78 4.56 14.22C4.94667 14.66 5.4 15 5.92 15.24C6.45333 15.4667 7.02667 15.58 7.64 15.58C7.82667 15.58 8.02667 15.5733 8.24 15.56C8.46667 15.5333 8.68667 15.5 8.9 15.46C9.11333 15.42 9.3 15.3733 9.46 15.32C9.63333 15.2667 9.75333 15.2133 9.82 15.16C9.9 15.12 9.94667 15.0667 9.96 15C9.97333 14.9333 9.98 14.8467 9.98 14.74C9.98 14.6467 9.98 14.4933 9.98 14.28C9.98 14.0667 9.96667 13.9 9.94 13.78C9.91333 13.4333 9.84 13.1733 9.72 13C9.61333 12.8133 9.52 12.6933 9.44 12.64C9.32 12.5333 9.14 12.4733 8.9 12.46C8.66 12.4467 8.43333 12.44 8.22 12.44L8.12 12.36L8.06 11.52L8.1 11.44C8.19333 11.44 8.34 11.4467 8.54 11.46C8.75333 11.4733 8.96667 11.4867 9.18 11.5C9.40667 11.5133 9.62 11.5267 9.82 11.54C10.0333 11.5533 10.1867 11.56 10.28 11.56H11.68C11.7733 11.56 11.9 11.5533 12.06 11.54C12.22 11.5267 12.3867 11.5133 12.56 11.5C12.7333 11.4867 12.9 11.4733 13.06 11.46C13.22 11.4467 13.3467 11.44 13.44 11.44L13.48 11.52L13.44 12.4L13.34 12.48C12.9533 12.48 12.68 12.5933 12.52 12.82C12.3733 13.0333 12.2867 13.3533 12.26 13.78C12.2333 14.0467 12.2133 14.3333 12.2 14.64C12.2 14.9333 12.2 15.1533 12.2 15.3C12.2 15.5 12.2 15.72 12.2 15.96C12.2133 16.1867 12.2333 16.3333 12.26 16.4L12.18 16.5ZM19.663 7.5C20.4496 7.5 21.1496 7.64 21.763 7.92C22.3763 8.18667 22.8896 8.55333 23.303 9.02C23.7296 9.47333 24.0496 10 24.263 10.6C24.4896 11.2 24.603 11.82 24.603 12.46C24.603 13.0733 24.503 13.6667 24.303 14.24C24.103 14.8133 23.7963 15.32 23.383 15.76C22.9696 16.2 22.4563 16.5533 21.843 16.82C21.2296 17.0867 20.5163 17.22 19.703 17.22C18.863 17.22 18.1296 17.08 17.503 16.8C16.8763 16.52 16.3563 16.1533 15.943 15.7C15.543 15.2467 15.243 14.7333 15.043 14.16C14.843 13.5733 14.743 12.9733 14.743 12.36C14.743 11.7067 14.8563 11.0867 15.083 10.5C15.3096 9.91333 15.6296 9.4 16.043 8.96C16.4696 8.50667 16.983 8.15333 17.583 7.9C18.1963 7.63333 18.8896 7.5 19.663 7.5ZM19.683 15.84C20.0963 15.84 20.4563 15.7467 20.763 15.56C21.083 15.36 21.3496 15.1067 21.563 14.8C21.7763 14.48 21.9296 14.12 22.023 13.72C22.1296 13.3067 22.183 12.8867 22.183 12.46C22.183 12.0467 22.123 11.6333 22.003 11.22C21.8963 10.7933 21.7296 10.4133 21.503 10.08C21.2896 9.74667 21.023 9.47333 20.703 9.26C20.383 9.04667 20.0163 8.94 19.603 8.94C19.1763 8.94 18.803 9.04 18.483 9.24C18.1763 9.44 17.923 9.7 17.723 10.02C17.523 10.34 17.3696 10.7 17.263 11.1C17.1696 11.5 17.123 11.9067 17.123 12.32C17.123 12.7467 17.1763 13.1667 17.283 13.58C17.403 13.9933 17.5696 14.3733 17.783 14.72C18.0096 15.0533 18.283 15.3267 18.603 15.54C18.923 15.74 19.283 15.84 19.683 15.84ZM33.4325 11.4L33.1125 13.04H26.5525L26.8525 11.4H33.4325Z" fill="#BD325B"/>
<path d="M53.088 17.12C52.9946 17.12 52.8413 17.1133 52.628 17.1C52.4146 17.0867 52.1946 17.0733 51.968 17.06C51.7413 17.0467 51.5213 17.0333 51.308 17.02C51.0946 17.0067 50.9413 17 50.848 17H49.668C49.5746 17 49.4213 17.0067 49.208 17.02C48.9946 17.0333 48.7746 17.0467 48.548 17.06C48.3213 17.0733 48.1013 17.0867 47.888 17.1C47.6746 17.1133 47.5213 17.12 47.428 17.12L47.368 17.04L47.428 16.28L47.508 16.2H47.728C48.1146 16.2 48.4146 16.14 48.628 16.02C48.8546 15.8867 48.968 15.6267 48.968 15.24L48.528 8.7C48.5013 8.39333 48.4813 8.12667 48.468 7.9C48.468 7.67333 48.4413 7.42667 48.388 7.16C48.308 7.4 48.1813 7.74 48.008 8.18C47.8346 8.62 47.6346 9.12667 47.408 9.7C47.1946 10.26 46.9613 10.86 46.708 11.5C46.4546 12.14 46.2013 12.78 45.948 13.42C45.6946 14.0467 45.4546 14.6533 45.228 15.24C45.0146 15.8133 44.828 16.3133 44.668 16.74H43.028L39.528 7.22C39.528 7.54 39.5146 7.80667 39.488 8.02C39.4613 8.22 39.4346 8.48 39.408 8.8L39.168 12.08C39.1413 12.52 39.1146 12.8867 39.088 13.18C39.0746 13.46 39.0613 13.7 39.048 13.9C39.048 14.1 39.048 14.2733 39.048 14.42C39.048 14.5667 39.048 14.7133 39.048 14.86C39.048 15.2467 39.088 15.5133 39.168 15.66C39.2613 15.8067 39.3613 15.92 39.468 16C39.5746 16.1067 39.6946 16.1667 39.828 16.18C39.9746 16.1933 40.1546 16.2 40.368 16.2L40.448 16.28L40.508 17.04L40.468 17.12C40.3746 17.12 40.2346 17.1133 40.048 17.1C39.8746 17.0867 39.6946 17.0733 39.508 17.06C39.3213 17.0467 39.1346 17.0333 38.948 17.02C38.7746 17.0067 38.6413 17 38.548 17H37.368C37.2746 17 37.1213 17.0067 36.908 17.02C36.708 17.0333 36.488 17.0467 36.248 17.06C36.0213 17.0733 35.8013 17.0867 35.588 17.1C35.388 17.1133 35.2413 17.12 35.148 17.12L35.108 17.04L35.168 16.28L35.288 16.2C35.488 16.2 35.6813 16.1933 35.868 16.18C36.0546 16.1533 36.2146 16.0933 36.348 16C36.4546 15.9067 36.5613 15.7867 36.668 15.64C36.7746 15.4933 36.8613 15.2333 36.928 14.86C36.9546 14.7 36.988 14.48 37.028 14.2C37.068 13.92 37.1146 13.4467 37.168 12.78L37.448 9.12C37.488 8.65333 37.5146 8.26 37.528 7.94C37.5546 7.62 37.568 7.34667 37.568 7.12C37.5813 6.89333 37.588 6.7 37.588 6.54C37.6013 6.38 37.608 6.22 37.608 6.06C37.608 5.67333 37.548 5.40667 37.428 5.26C37.3213 5.11333 37.2146 5 37.108 4.92C36.988 4.81333 36.8346 4.75333 36.648 4.74C36.4613 4.72667 36.2613 4.72 36.048 4.72L35.948 4.64L35.888 3.88L35.928 3.8C36.0213 3.8 36.1746 3.80667 36.388 3.82C36.6013 3.83333 36.8213 3.84667 37.048 3.86C37.2746 3.87333 37.4946 3.88667 37.708 3.9C37.9213 3.91333 38.0746 3.92 38.168 3.92H39.708C39.8013 3.92 39.9213 3.91333 40.068 3.9C40.228 3.88667 40.3746 3.86667 40.508 3.84L40.608 3.9C40.6213 4.08667 40.668 4.34667 40.748 4.68C40.8413 5.01333 40.948 5.38 41.068 5.78C41.2013 6.18 41.348 6.60667 41.508 7.06C41.668 7.5 41.828 7.93333 41.988 8.36L43.248 11.6C43.3946 11.96 43.5413 12.34 43.688 12.74C43.8346 13.14 43.968 13.52 44.088 13.88C44.128 13.8267 44.2346 13.5933 44.408 13.18C44.5813 12.7667 44.788 12.2533 45.028 11.64C45.268 11.0267 45.5213 10.3533 45.788 9.62C46.068 8.87333 46.328 8.14 46.568 7.42C46.8213 6.7 47.0346 6.03333 47.208 5.42C47.3946 4.79333 47.5146 4.29333 47.568 3.92L47.668 3.84C47.7746 3.86667 47.888 3.88667 48.008 3.9C48.128 3.91333 48.2413 3.92 48.348 3.92H50.068C50.1613 3.92 50.3146 3.91333 50.528 3.9C50.7413 3.88667 50.9613 3.87333 51.188 3.86C51.4146 3.84667 51.6346 3.83333 51.848 3.82C52.0613 3.80667 52.2146 3.8 52.308 3.8L52.348 3.88L52.288 4.64L52.188 4.72C51.988 4.72 51.788 4.73333 51.588 4.76C51.4013 4.77333 51.248 4.82667 51.128 4.92C51.0213 5 50.908 5.12 50.788 5.28C50.6813 5.44 50.628 5.7 50.628 6.06C50.628 6.24667 50.628 6.42 50.628 6.58C50.628 6.74 50.6346 6.92667 50.648 7.14C50.6613 7.35333 50.6746 7.61333 50.688 7.92C50.7146 8.22667 50.748 8.62 50.788 9.1L51.028 11.98C51.068 12.46 51.1013 12.8533 51.128 13.16C51.1546 13.4533 51.1746 13.7 51.188 13.9C51.2146 14.1 51.2346 14.2733 51.248 14.42C51.2613 14.5533 51.2813 14.7 51.308 14.86C51.3613 15.2467 51.4413 15.5133 51.548 15.66C51.6546 15.8067 51.7613 15.92 51.868 16C51.988 16.1067 52.1413 16.1667 52.328 16.18C52.528 16.1933 52.7346 16.2 52.948 16.2L53.048 16.28L53.108 17.04L53.088 17.12ZM59.8142 16.86C59.8542 16.74 59.8809 16.5667 59.8942 16.34C59.9209 16.1133 59.9542 15.9067 59.9942 15.72L59.9742 15.66C59.8142 15.86 59.6276 16.0533 59.4142 16.24C59.2142 16.4267 58.9876 16.5933 58.7342 16.74C58.4809 16.8867 58.2076 17 57.9142 17.08C57.6342 17.1733 57.3342 17.22 57.0142 17.22C56.5342 17.22 56.1142 17.1467 55.7542 17C55.3942 16.8533 55.0942 16.66 54.8542 16.42C54.6142 16.18 54.4276 15.9 54.2942 15.58C54.1742 15.26 54.1142 14.9267 54.1142 14.58C54.1142 14.06 54.2276 13.6067 54.4542 13.22C54.6809 12.8333 54.9809 12.52 55.3542 12.28C55.7009 12.0533 56.1076 11.88 56.5742 11.76C57.0409 11.6267 57.4942 11.5267 57.9342 11.46C58.3742 11.3933 58.7742 11.3533 59.1342 11.34C59.4942 11.3133 59.7342 11.3 59.8542 11.3H60.1342C60.1209 10.8867 60.0942 10.5667 60.0542 10.34C60.0142 10.1 59.9609 9.9 59.8942 9.74C59.7742 9.47333 59.5742 9.28667 59.2942 9.18C59.0276 9.06 58.7076 9 58.3342 9C58.1076 9 57.8609 9.02 57.5942 9.06C57.3409 9.08667 57.1009 9.14667 56.8742 9.24C56.6476 9.33333 56.4476 9.46667 56.2742 9.64C56.1142 9.8 56.0209 10.0133 55.9942 10.28L55.9142 10.34H55.2742L55.0942 8.46L55.1542 8.34C55.2342 8.26 55.3876 8.17333 55.6142 8.08C55.8409 7.98667 56.1142 7.9 56.4342 7.82C56.7542 7.72667 57.1009 7.65333 57.4742 7.6C57.8609 7.53333 58.2476 7.5 58.6342 7.5C59.1542 7.5 59.6409 7.56667 60.0942 7.7C60.5476 7.82 60.9342 8.00667 61.2542 8.26C61.5876 8.51333 61.8476 8.83333 62.0342 9.22C62.2209 9.59333 62.3142 10.0333 62.3142 10.54C62.3142 11.0867 62.3076 11.5533 62.2942 11.94C62.2942 12.3267 62.2876 12.6867 62.2742 13.02C62.2609 13.3533 62.2476 13.68 62.2342 14C62.2342 14.3067 62.2342 14.6533 62.2342 15.04C62.2609 15.3467 62.2942 15.5667 62.3342 15.7C62.3742 15.8333 62.4409 15.94 62.5342 16.02C62.6409 16.1267 62.8009 16.1933 63.0142 16.22C63.2409 16.2333 63.4476 16.24 63.6342 16.24L63.6942 16.32L63.7342 17L63.7142 17.08C63.4876 17.0533 63.2276 17.0333 62.9342 17.02C62.6409 17.0067 62.3676 17 62.1142 17C61.7409 17 61.3676 17 60.9942 17C60.6209 17.0133 60.2676 17.0333 59.9342 17.06L59.8142 16.86ZM59.8142 14.7C59.8542 14.6333 59.8942 14.5533 59.9342 14.46C59.9876 14.3667 60.0209 14.2533 60.0342 14.12L60.1342 12.42H59.9542C59.5409 12.42 59.1342 12.4467 58.7342 12.5C58.3342 12.5533 57.9742 12.6533 57.6542 12.8C57.3342 12.9467 57.0742 13.1533 56.8742 13.42C56.6742 13.6867 56.5742 14.0333 56.5742 14.46C56.5742 14.82 56.6609 15.1067 56.8342 15.32C57.0209 15.5333 57.2676 15.64 57.5742 15.64C57.8009 15.64 58.0276 15.6133 58.2542 15.56C58.4942 15.4933 58.7142 15.4133 58.9142 15.32C59.1142 15.2267 59.2942 15.1267 59.4542 15.02C59.6142 14.9 59.7342 14.7933 59.8142 14.7ZM69.6663 17.08C69.5729 17.08 69.4329 17.0733 69.2463 17.06C69.0596 17.0467 68.8596 17.0333 68.6463 17.02C68.4329 17.02 68.2329 17.0133 68.0463 17C67.8596 17 67.7196 17 67.6263 17H66.5462C66.4529 17 66.3063 17 66.1063 17C65.9196 17.0133 65.7196 17.02 65.5063 17.02C65.3063 17.0333 65.1063 17.0467 64.9063 17.06C64.7196 17.0733 64.5796 17.08 64.4863 17.08L64.4663 17L64.5063 16.32L64.5662 16.24C64.7663 16.24 64.9729 16.2333 65.1863 16.22C65.3996 16.1933 65.5596 16.1267 65.6663 16.02C65.7596 15.9267 65.8263 15.8067 65.8663 15.66C65.9063 15.5133 65.9396 15.3067 65.9663 15.04C65.9796 14.9467 65.9863 14.8533 65.9863 14.76C65.9996 14.6667 66.0063 14.5667 66.0063 14.46C66.0196 14.3533 66.0263 14.2267 66.0263 14.08C66.0263 13.9333 66.0263 13.7533 66.0263 13.54V11.28C66.0263 11.0267 66.0263 10.8267 66.0263 10.68C66.0263 10.52 66.0196 10.3867 66.0063 10.28C66.0063 10.1733 65.9996 10.08 65.9863 10C65.9863 9.90667 65.9796 9.8 65.9663 9.68C65.9396 9.54667 65.8996 9.42 65.8463 9.3C65.7929 9.18 65.7463 9.1 65.7063 9.06C65.5729 8.88667 65.4063 8.78667 65.2063 8.76C65.0063 8.73333 64.7996 8.72 64.5863 8.72L64.5063 8.64V7.96L64.5863 7.9H65.6063C65.9129 7.9 66.2396 7.9 66.5863 7.9C66.9329 7.88667 67.2396 7.86 67.5063 7.82L68.2063 7.72L68.3263 8.1C68.2996 8.15333 68.2729 8.24 68.2463 8.36C68.2329 8.46667 68.2196 8.58667 68.2063 8.72C68.2063 8.84 68.1996 8.96667 68.1863 9.1C68.1863 9.22 68.1863 9.32 68.1863 9.4C68.1863 9.50667 68.1796 9.60667 68.1663 9.7C68.1663 9.78 68.1663 9.88 68.1663 10C68.1663 10.1067 68.1596 10.2467 68.1463 10.42C68.1463 10.5933 68.1463 10.8067 68.1463 11.06V13.3C68.1463 13.5667 68.1463 13.7867 68.1463 13.96C68.1596 14.12 68.1663 14.26 68.1663 14.38C68.1796 14.5 68.1863 14.6133 68.1863 14.72C68.1996 14.8133 68.2129 14.92 68.2263 15.04C68.2529 15.32 68.2796 15.5333 68.3063 15.68C68.3463 15.8133 68.4196 15.9267 68.5263 16.02C68.6329 16.1267 68.7796 16.1933 68.9663 16.22C69.1663 16.2333 69.3663 16.24 69.5663 16.24L69.6663 16.34L69.7063 17L69.6663 17.08ZM65.6063 4.74C65.6063 4.58 65.6396 4.42 65.7063 4.26C65.7729 4.1 65.8663 3.96 65.9863 3.84C66.1063 3.70667 66.2396 3.60667 66.3863 3.54C66.5463 3.46 66.7129 3.42 66.8863 3.42C67.2196 3.42 67.5196 3.56 67.7863 3.84C68.0663 4.10667 68.2063 4.40667 68.2063 4.74C68.2063 4.91333 68.1663 5.08 68.0863 5.24C68.0196 5.38667 67.9196 5.52 67.7863 5.64C67.6663 5.76 67.5263 5.85333 67.3663 5.92C67.2063 5.98667 67.0463 6.02 66.8863 6.02C66.5396 6.02 66.2396 5.89333 65.9863 5.64C65.7329 5.38667 65.6063 5.08667 65.6063 4.74ZM75.5795 17.08C75.4862 17.08 75.3462 17.0733 75.1595 17.06C74.9729 17.0467 74.7729 17.0333 74.5595 17.02C74.3462 17.02 74.1462 17.0133 73.9595 17C73.7729 17 73.6329 17 73.5395 17H72.4595C72.3662 17 72.2195 17 72.0195 17C71.8329 17.0133 71.6329 17.02 71.4195 17.02C71.2195 17.0333 71.0195 17.0467 70.8195 17.06C70.6329 17.0733 70.4929 17.08 70.3995 17.08L70.3795 17L70.4195 16.32L70.4795 16.24C70.6795 16.24 70.8862 16.2333 71.0995 16.22C71.3129 16.1933 71.4729 16.1267 71.5795 16.02C71.6729 15.9267 71.7395 15.8067 71.7795 15.66C71.8195 15.5133 71.8529 15.3067 71.8795 15.04C71.8929 14.9467 71.8995 14.8533 71.8995 14.76C71.9129 14.6667 71.9195 14.5667 71.9195 14.46C71.9329 14.3533 71.9395 14.2267 71.9395 14.08C71.9395 13.9333 71.9395 13.7533 71.9395 13.54V5.76C71.9395 5.50667 71.9395 5.30667 71.9395 5.16C71.9395 5 71.9329 4.86667 71.9195 4.76C71.9195 4.65333 71.9129 4.56 71.8995 4.48C71.8995 4.38667 71.8929 4.28 71.8795 4.16C71.8529 4.02667 71.8129 3.9 71.7595 3.78C71.7062 3.66 71.6595 3.58 71.6195 3.54C71.4862 3.36667 71.3195 3.26667 71.1195 3.24C70.9195 3.21333 70.7129 3.2 70.4995 3.2L70.4195 3.12V2.44L70.4995 2.38H71.5195C71.8262 2.38 72.1529 2.38 72.4995 2.38C72.8462 2.36667 73.1529 2.34 73.4195 2.3L74.1195 2.2L74.2395 2.58C74.2129 2.63333 74.1862 2.72 74.1595 2.84C74.1462 2.94667 74.1329 3.06667 74.1195 3.2C74.1195 3.32 74.1129 3.44667 74.0995 3.58C74.0995 3.7 74.0995 3.8 74.0995 3.88C74.0995 3.98667 74.0929 4.08667 74.0795 4.18C74.0795 4.26 74.0795 4.36 74.0795 4.48C74.0795 4.58667 74.0729 4.72667 74.0595 4.9C74.0595 5.07333 74.0595 5.28667 74.0595 5.54V13.3C74.0595 13.5667 74.0595 13.7867 74.0595 13.96C74.0729 14.12 74.0795 14.26 74.0795 14.38C74.0929 14.5 74.0995 14.6133 74.0995 14.72C74.1129 14.8133 74.1262 14.92 74.1395 15.04C74.1662 15.32 74.1929 15.5333 74.2195 15.68C74.2595 15.8133 74.3329 15.9267 74.4395 16.02C74.5462 16.1267 74.6929 16.1933 74.8795 16.22C75.0795 16.2333 75.2795 16.24 75.4795 16.24L75.5795 16.34L75.6195 17L75.5795 17.08ZM85.3566 11.9L84.8766 12.26C84.1566 12.26 83.4432 12.2667 82.7366 12.28C82.0432 12.2933 81.3299 12.3 80.5966 12.3H78.9566C78.9432 12.3933 78.9366 12.4867 78.9366 12.58C78.9366 12.66 78.9366 12.74 78.9366 12.82C78.9366 13.1667 78.9966 13.5133 79.1166 13.86C79.2366 14.2067 79.4232 14.52 79.6766 14.8C79.9432 15.0667 80.2766 15.2867 80.6766 15.46C81.0766 15.62 81.5632 15.7 82.1366 15.7C82.5499 15.7 82.9832 15.6467 83.4366 15.54C83.9032 15.42 84.3366 15.2667 84.7366 15.08L85.0766 15.22V15.94L84.8766 16.16C84.5566 16.4133 84.0832 16.6533 83.4566 16.88C82.8432 17.1067 82.1766 17.22 81.4566 17.22C80.7499 17.22 80.1032 17.1067 79.5166 16.88C78.9432 16.64 78.4432 16.3067 78.0166 15.88C77.6032 15.4533 77.2766 14.9467 77.0366 14.36C76.8099 13.7733 76.6966 13.12 76.6966 12.4C76.6966 11.6667 76.8166 11 77.0566 10.4C77.2966 9.8 77.6232 9.28667 78.0366 8.86C78.4632 8.43333 78.9566 8.1 79.5166 7.86C80.0899 7.62 80.7032 7.5 81.3566 7.5C81.7032 7.5 82.0899 7.54667 82.5166 7.64C82.9566 7.73333 83.3766 7.91333 83.7766 8.18C84.1766 8.43333 84.5366 8.8 84.8566 9.28C85.1766 9.74667 85.3966 10.3667 85.5166 11.14L85.3566 11.9ZM81.3766 9C80.7232 9 80.1966 9.2 79.7966 9.6C79.4099 9.98667 79.1632 10.44 79.0566 10.96H80.0566C80.5232 10.96 80.9832 10.9533 81.4366 10.94C81.8899 10.9133 82.3499 10.9 82.8166 10.9C82.9899 10.9 83.1166 10.8533 83.1966 10.76C83.2766 10.6533 83.3166 10.5467 83.3166 10.44C83.3166 10.04 83.1232 9.7 82.7366 9.42C82.3499 9.14 81.8966 9 81.3766 9ZM90.1733 9.92C90.3066 9.66667 90.4533 9.4 90.6133 9.12C90.7866 8.84 90.9799 8.58 91.1933 8.34C91.4066 8.1 91.6466 7.9 91.9133 7.74C92.1933 7.58 92.5066 7.5 92.8533 7.5C92.9599 7.5 93.0866 7.51333 93.2333 7.54C93.3933 7.55333 93.5466 7.58 93.6933 7.62C93.8533 7.66 94.0066 7.70667 94.1533 7.76C94.2999 7.81333 94.4133 7.87333 94.4933 7.94L94.6333 8.06L94.3933 10.22H93.5333C93.4933 10.06 93.3866 9.9 93.2133 9.74C93.0533 9.56667 92.7999 9.48 92.4533 9.48C92.1466 9.48 91.8666 9.56 91.6133 9.72C91.3599 9.86667 91.1399 10.0533 90.9533 10.28C90.7666 10.5067 90.6199 10.7533 90.5133 11.02C90.4066 11.2733 90.3533 11.5067 90.3533 11.72V13.1C90.3533 13.6067 90.3533 13.9867 90.3533 14.24C90.3666 14.4933 90.3799 14.7133 90.3933 14.9C90.4199 15.1933 90.4533 15.4333 90.4933 15.62C90.5466 15.7933 90.6266 15.9267 90.7333 16.02C90.7866 16.0733 90.8666 16.12 90.9733 16.16C91.0933 16.1867 91.2133 16.2067 91.3333 16.22C91.4533 16.2333 91.5666 16.24 91.6733 16.24C91.7933 16.24 91.8866 16.24 91.9533 16.24L92.0533 16.34L92.0933 17L92.0533 17.08C91.9733 17.08 91.8399 17.0733 91.6533 17.06C91.4666 17.0467 91.2666 17.0333 91.0533 17.02C90.8399 17.02 90.6399 17.0133 90.4533 17C90.2666 17 90.1333 17 90.0533 17H88.7733C88.6799 17 88.5333 17 88.3333 17C88.1466 17.0133 87.9466 17.02 87.7333 17.02C87.5199 17.0333 87.3133 17.0467 87.1133 17.06C86.9266 17.0733 86.7866 17.08 86.6933 17.08L86.6733 17L86.7133 16.32L86.7733 16.24C86.9999 16.24 87.2133 16.2333 87.4133 16.22C87.6133 16.1933 87.7666 16.1267 87.8733 16.02C87.9799 15.9267 88.0533 15.8067 88.0933 15.66C88.1466 15.5133 88.1866 15.26 88.2133 14.9C88.2266 14.74 88.2333 14.5267 88.2333 14.26C88.2333 13.9933 88.2333 13.62 88.2333 13.14V11.68C88.2333 11.4 88.2333 11.1667 88.2333 10.98C88.2333 10.78 88.2266 10.6067 88.2133 10.46C88.2133 10.3133 88.2066 10.18 88.1933 10.06C88.1933 9.94 88.1866 9.81333 88.1733 9.68C88.1466 9.54667 88.1066 9.42 88.0533 9.3C87.9999 9.18 87.9533 9.1 87.9133 9.06C87.7799 8.88667 87.6133 8.78667 87.4133 8.76C87.2133 8.73333 87.0066 8.72 86.7933 8.72L86.7133 8.64V7.96L86.7933 7.9H87.1533C87.4466 7.9 87.8266 7.9 88.2933 7.9C88.7599 7.88667 89.1666 7.86 89.5133 7.82L90.2133 7.72L90.3333 8.1C90.2533 8.35333 90.1933 8.64 90.1533 8.96C90.1266 9.28 90.1133 9.59333 90.1133 9.9L90.1733 9.92Z" fill="#3283BD"/>
</svg>
