<svg width="18" height="18" viewBox="0 0 18 18" fill="none" xmlns="http://www.w3.org/2000/svg">
<path fill-rule="evenodd" clip-rule="evenodd" d="M8.25 15.7088V13.4378C6.36562 13.1216 4.87836 11.6344 4.56222 9.75H2.2912C2.63706 12.8787 5.12129 15.3629 8.25 15.7088ZM6 9.75H5.32501C5.62328 11.2193 6.78065 12.3767 8.25 12.675V12C8.25 11.5858 8.58579 11.25 9 11.25C9.41421 11.25 9.75 11.5858 9.75 12V12.675C11.2193 12.3767 12.3767 11.2193 12.675 9.75H12C11.5858 9.75 11.25 9.41421 11.25 9C11.25 8.58579 11.5858 8.25 12 8.25H12.675C12.3767 6.78065 11.2193 5.62328 9.75 5.32501V6C9.75 6.41421 9.41421 6.75 9 6.75C8.58579 6.75 8.25 6.41421 8.25 6V5.32501C6.78065 5.62328 5.62328 6.78065 5.32501 8.25H6C6.41421 8.25 6.75 8.58579 6.75 9C6.75 9.41421 6.41421 9.75 6 9.75ZM13.4378 9.75C13.1216 11.6344 11.6344 13.1216 9.75 13.4378V15.7088C12.8787 15.3629 15.3629 12.8787 15.7088 9.75H13.4378ZM15.7088 8.25H13.4378C13.1216 6.36562 11.6344 4.87836 9.75 4.56222V2.2912C12.8787 2.63706 15.3629 5.12129 15.7088 8.25ZM16.5 9C16.5 4.85786 13.1421 1.5 9 1.5C4.85786 1.5 1.5 4.85786 1.5 9C1.5 13.1421 4.85786 16.5 9 16.5C13.1421 16.5 16.5 13.1421 16.5 9ZM2.2912 8.25H4.56222C4.87836 6.36562 6.36562 4.87836 8.25 4.56222V2.2912C5.12129 2.63706 2.63706 5.12129 2.2912 8.25ZM8.25 8.25V7.5H9.75V8.25H10.5V9.75H9.75V10.5H8.25V9.75H7.5V8.25H8.25Z" fill="#3283BD"/>
</svg>
