<svg width="18" height="18" viewBox="0 0 18 18" fill="none" xmlns="http://www.w3.org/2000/svg">
<path fill-rule="evenodd" clip-rule="evenodd" d="M2.24998 5.24994C2.24998 3.59308 3.59313 2.24994 5.24998 2.24994H12.75C14.4068 2.24994 15.75 3.59308 15.75 5.24994V10.4999H12.75C11.4098 10.4999 10.8678 11.2983 10.6487 11.9438C10.5529 12.1934 10.5003 12.4643 10.5 12.7475L10.5 12.7499V15.7499H5.24998C3.59313 15.7499 2.24998 14.4068 2.24998 12.7499V5.24994ZM16.5 5.24994L16.5 10.4999V11.2499L16.5 11.25L16.5 11.25L16.2348 11.5152L11.5152 16.2349L11.25 16.5L11.2499 16.4999H10.5L5.24998 16.4999C3.17892 16.4999 1.49998 14.821 1.49998 12.7499V5.24994C1.49998 3.17887 3.17892 1.49994 5.24998 1.49994H12.75C14.8211 1.49994 16.5 3.17887 16.5 5.24994ZM5.24999 4.49994C4.83578 4.49994 4.49999 4.83573 4.49999 5.24994C4.49999 5.66416 4.83578 5.99994 5.24999 5.99994H12.75C13.1642 5.99994 13.5 5.66416 13.5 5.24994C13.5 4.83573 13.1642 4.49994 12.75 4.49994H5.24999ZM5.24999 8.25002C4.83578 8.25002 4.49999 8.5858 4.49999 9.00002C4.49999 9.41423 4.83578 9.75002 5.24999 9.75002H12.75C13.1642 9.75002 13.5 9.41423 13.5 9.00002C13.5 8.5858 13.1642 8.25002 12.75 8.25002H5.24999ZM4.49999 12.75C4.49999 12.3358 4.83578 12 5.24999 12H8.24999C8.66421 12 8.99999 12.3358 8.99999 12.75C8.99999 13.1642 8.66421 13.5 8.24999 13.5H5.24999C4.83578 13.5 4.49999 13.1642 4.49999 12.75Z" fill="#3283BD" fill-opacity="0.8"/>
</svg>
