<svg width="18" height="18" viewBox="0 0 18 18" fill="none" xmlns="http://www.w3.org/2000/svg">
<path fill-rule="evenodd" clip-rule="evenodd" d="M9 1.5C7.34315 1.5 6 2.84315 6 4.5V6.75C6 8.40685 7.34315 9.75 9 9.75C10.6569 9.75 12 8.40685 12 6.75V4.5C12 2.84315 10.6569 1.5 9 1.5ZM5.25 9H5.99973C6.68388 9.91084 7.77314 10.5 9 10.5C10.2269 10.5 11.3161 9.91084 12.0003 9H12.75C14.8211 9 16.5 10.6789 16.5 12.75V15C16.5 15.8284 15.8284 16.5 15 16.5H3C2.17157 16.5 1.5 15.8284 1.5 15V12.75C1.5 10.6789 3.17893 9 5.25 9Z" fill="#3283BD"/>
</svg>
