<svg width="24" height="24" viewBox="0 0 24 24" fill="none" xmlns="http://www.w3.org/2000/svg">
<mask id="path-1-inside-1" fill="white">
<path fill-rule="evenodd" clip-rule="evenodd" d="M21 7.60159V17C21 19.2091 19.2091 21 17 21H7C4.79086 21 3 19.2091 3 17V7C3 4.79086 4.79086 3 7 3H15.9142L16.9142 2H7C4.23858 2 2 4.23858 2 7V17C2 19.7614 4.23858 22 7 22H17C19.7614 22 22 19.7614 22 17V7C22 6.87083 21.9951 6.74281 21.9855 6.61611L21 7.60159ZM19.2929 6.29289L17.7071 4.70711C17.3166 4.31658 17.3166 3.68342 17.7071 3.29289L18.2929 2.70711C18.6834 2.31658 19.3166 2.31658 19.7071 2.70711L21.2929 4.29289C21.6834 4.68342 21.6834 5.31658 21.2929 5.70711L20.7071 6.29289C20.3166 6.68342 19.6834 6.68342 19.2929 6.29289ZM16.7071 5.70711L18.2929 7.29289C18.6834 7.68342 18.6834 8.31658 18.2929 8.70711L11.2929 15.7071C11.1054 15.8946 10.851 16 10.5858 16H9C8.44772 16 8 15.5523 8 15V13.4142C8 13.149 8.10536 12.8946 8.29289 12.7071L15.2929 5.70711C15.6834 5.31658 16.3166 5.31658 16.7071 5.70711Z"/>
</mask>
<path fill-rule="evenodd" clip-rule="evenodd" d="M21 7.60159V17C21 19.2091 19.2091 21 17 21H7C4.79086 21 3 19.2091 3 17V7C3 4.79086 4.79086 3 7 3H15.9142L16.9142 2H7C4.23858 2 2 4.23858 2 7V17C2 19.7614 4.23858 22 7 22H17C19.7614 22 22 19.7614 22 17V7C22 6.87083 21.9951 6.74281 21.9855 6.61611L21 7.60159ZM19.2929 6.29289L17.7071 4.70711C17.3166 4.31658 17.3166 3.68342 17.7071 3.29289L18.2929 2.70711C18.6834 2.31658 19.3166 2.31658 19.7071 2.70711L21.2929 4.29289C21.6834 4.68342 21.6834 5.31658 21.2929 5.70711L20.7071 6.29289C20.3166 6.68342 19.6834 6.68342 19.2929 6.29289ZM16.7071 5.70711L18.2929 7.29289C18.6834 7.68342 18.6834 8.31658 18.2929 8.70711L11.2929 15.7071C11.1054 15.8946 10.851 16 10.5858 16H9C8.44772 16 8 15.5523 8 15V13.4142C8 13.149 8.10536 12.8946 8.29289 12.7071L15.2929 5.70711C15.6834 5.31658 16.3166 5.31658 16.7071 5.70711Z" fill="#5D5B5B"/>
<path d="M21 7.60159L20.2929 6.89449L20 7.18738V7.60159H21ZM15.9142 3V4H16.3284L16.6213 3.70711L15.9142 3ZM16.9142 2L17.6213 2.70711L19.3284 1H16.9142V2ZM21.9855 6.61611L22.9826 6.5404L22.8178 4.3696L21.2784 5.909L21.9855 6.61611ZM17.7071 4.70711L17 5.41421L17 5.41421L17.7071 4.70711ZM19.2929 6.29289L20 5.58579V5.58579L19.2929 6.29289ZM17.7071 3.29289L18.4142 4V4L17.7071 3.29289ZM18.2929 2.70711L17.5858 2L17.5858 2L18.2929 2.70711ZM19.7071 2.70711L19 3.41421V3.41421L19.7071 2.70711ZM21.2929 4.29289L20.5858 5L20.5858 5L21.2929 4.29289ZM21.2929 5.70711L22 6.41421L21.2929 5.70711ZM20.7071 6.29289L21.4142 7L21.4142 7L20.7071 6.29289ZM18.2929 7.29289L17.5858 8L17.5858 8L18.2929 7.29289ZM16.7071 5.70711L16 6.41421L16.7071 5.70711ZM18.2929 8.70711L17.5858 8L17.5858 8L18.2929 8.70711ZM11.2929 15.7071L12 16.4142L11.2929 15.7071ZM8.29289 12.7071L7.58579 12L7.58579 12L8.29289 12.7071ZM15.2929 5.70711L16 6.41421L16 6.41421L15.2929 5.70711ZM22 17V7.60159H20V17H22ZM17 22C19.7614 22 22 19.7614 22 17H20C20 18.6569 18.6569 20 17 20V22ZM7 22H17V20H7V22ZM2 17C2 19.7614 4.23858 22 7 22V20C5.34315 20 4 18.6569 4 17H2ZM2 7V17H4V7H2ZM7 2C4.23858 2 2 4.23858 2 7H4C4 5.34315 5.34315 4 7 4V2ZM15.9142 2H7V4H15.9142V2ZM16.2071 1.29289L15.2071 2.29289L16.6213 3.70711L17.6213 2.70711L16.2071 1.29289ZM7 3H16.9142V1H7V3ZM3 7C3 4.79086 4.79086 3 7 3V1C3.68629 1 1 3.68629 1 7H3ZM3 17V7H1V17H3ZM7 21C4.79086 21 3 19.2091 3 17H1C1 20.3137 3.68629 23 7 23V21ZM17 21H7V23H17V21ZM21 17C21 19.2091 19.2091 21 17 21V23C20.3137 23 23 20.3137 23 17H21ZM21 7V17H23V7H21ZM20.9884 6.69182C20.9961 6.79335 21 6.89611 21 7H23C23 6.84555 22.9941 6.69228 22.9826 6.5404L20.9884 6.69182ZM21.7071 8.3087L22.6926 7.32322L21.2784 5.909L20.2929 6.89449L21.7071 8.3087ZM17 5.41421L18.5858 7L20 5.58579L18.4142 4L17 5.41421ZM17 2.58579C16.2189 3.36684 16.219 4.63317 17 5.41421L18.4142 4V4L17 2.58579ZM17.5858 2L17 2.58579L18.4142 4L19 3.41421L17.5858 2ZM20.4142 2C19.6332 1.21895 18.3668 1.21895 17.5858 2L19 3.41422L19 3.41421L20.4142 2ZM22 3.58579L20.4142 2L19 3.41421L20.5858 5L22 3.58579ZM22 6.41421C22.781 5.63316 22.781 4.36683 22 3.58579L20.5858 5V5L22 6.41421ZM21.4142 7L22 6.41421L20.5858 5L20 5.58579L21.4142 7ZM18.5858 7C19.3668 7.78105 20.6332 7.78105 21.4142 7L20 5.58578L20 5.58579L18.5858 7ZM19 6.58579L17.4142 5L16 6.41421L17.5858 8L19 6.58579ZM19 9.41422C19.781 8.63317 19.781 7.36683 19 6.58578L17.5858 8L17.5858 8L19 9.41422ZM12 16.4142L19 9.41421L17.5858 8L10.5858 15L12 16.4142ZM10.5858 17C11.1162 17 11.6249 16.7893 12 16.4142L10.5858 15L10.5858 15V17ZM9 17H10.5858V15H9V17ZM7 15C7 16.1046 7.89543 17 9 17V15H7ZM7 13.4142V15H9V13.4142H7ZM7.58579 12C7.21071 12.3751 7 12.8838 7 13.4142H9L9 13.4142L7.58579 12ZM14.5858 5L7.58579 12L9 13.4142L16 6.41421L14.5858 5ZM17.4142 5C16.6332 4.21895 15.3668 4.21895 14.5858 5L16 6.41421L16 6.41421L17.4142 5Z" fill="#5D5B5B" mask="url(#path-1-inside-1)"/>
</svg>
