<svg width="24" height="24" viewBox="0 0 24 24" fill="none" xmlns="http://www.w3.org/2000/svg">
<path fill-rule="evenodd" clip-rule="evenodd" d="M3.5 2.5C3.5 1.94772 3.05228 1.5 2.5 1.5C1.94772 1.5 1.5 1.94772 1.5 2.5V19.501C1.5 21.1586 2.84381 22.5 4.5 22.5H21.5C22.0523 22.5 22.5 22.0523 22.5 21.5C22.5 20.9477 22.0523 20.5 21.5 20.5H4.5C3.94705 20.5 3.5 20.0526 3.5 19.501V2.5ZM12 6C11.4477 6 11 6.44772 11 7V19H15V7C15 6.44772 14.5523 6 14 6H12ZM6 12C5.44772 12 5 12.4477 5 13V19H9V13C9 12.4477 8.55228 12 8 12H6ZM17 9C17 8.44771 17.4477 8 18 8H20C20.5523 8 21 8.44772 21 9V19H17V9Z" fill="#F7F7F7"/>
</svg>
