<svg width="18" height="18" viewBox="0 0 18 18" fill="none" xmlns="http://www.w3.org/2000/svg">
<path fill-rule="evenodd" clip-rule="evenodd" d="M2.41499 1.72497C2.41499 1.3439 2.10606 1.03497 1.72499 1.03497C1.34391 1.03497 1.03499 1.3439 1.03499 1.72497V13.4557C1.03499 14.5994 1.96222 15.525 3.10499 15.525H14.835C15.2161 15.525 15.525 15.2161 15.525 14.835C15.525 14.4539 15.2161 14.145 14.835 14.145H3.10499C2.72345 14.145 2.41499 13.8363 2.41499 13.4557V1.72497ZM8.27998 4.13988C7.89891 4.13988 7.58998 4.4488 7.58998 4.82988V13.1099H10.35V4.82988C10.35 4.4488 10.0411 4.13988 9.65999 4.13988H8.27998ZM4.13998 8.27997C3.7589 8.27997 3.44998 8.58889 3.44998 8.96997V13.11H6.20998V8.96997C6.20998 8.58889 5.90106 8.27997 5.51998 8.27997H4.13998ZM11.73 6.20998C11.73 5.8289 12.0389 5.51998 12.42 5.51998H13.8C14.1811 5.51998 14.49 5.8289 14.49 6.20998V13.11H11.73V6.20998Z" fill="#23608C"/>
</svg>
