<svg width="18" height="18" viewBox="0 0 18 18" fill="none" xmlns="http://www.w3.org/2000/svg">
<path fill-rule="evenodd" clip-rule="evenodd" d="M16.4472 8.10512C16.4051 7.75092 16.0936 7.5 15.7369 7.5H14.811C14.6693 6.94947 14.4514 6.42952 14.1693 5.95205L14.824 5.29735C15.0762 5.04515 15.119 4.64757 14.8985 4.36723C14.7158 4.13492 14.5196 3.91368 14.3112 3.70466L14.2953 3.68875C14.0863 3.48036 13.8651 3.28422 13.6328 3.10151C13.3524 2.88102 12.9549 2.92383 12.7027 3.17603L12.048 3.83073C11.5705 3.54859 11.0505 3.33072 10.5 3.18903V2.26308C10.5 1.90638 10.2491 1.59495 9.89488 1.55283C9.60145 1.51795 9.30282 1.5 9 1.5C8.74688 1.5 8.49668 1.51254 8.25 1.53703V6.87825V7.5H9C9.82843 7.5 10.5 8.17157 10.5 9C10.5 9.82843 9.82843 10.5 9 10.5H8.25V11.1217V16.463C8.49668 16.4875 8.74688 16.5 9 16.5C9.30282 16.5 9.60145 16.4821 9.89488 16.4472C10.2491 16.4051 10.5 16.0936 10.5 15.7369V14.811C11.0505 14.6693 11.5705 14.4514 12.0479 14.1693L12.7027 14.824C12.9548 15.0762 13.3524 15.119 13.6328 14.8985C13.8651 14.7158 14.0863 14.5197 14.2953 14.3113L14.3113 14.2953C14.5197 14.0863 14.7158 13.8651 14.8985 13.6328C15.119 13.3524 15.0762 12.9549 14.824 12.7027L14.1693 12.048C14.4514 11.5705 14.6693 11.0505 14.811 10.5H15.7369C16.0936 10.5 16.4051 10.2491 16.4472 9.89488C16.4821 9.60145 16.5 9.30282 16.5 9C16.5 8.69718 16.4821 8.39855 16.4472 8.10512ZM13.7802 13.7658C13.9546 13.5908 14.1195 13.4064 14.2739 13.2133L13.6389 12.5783L13.2277 12.1671L13.5236 11.6664C13.7704 11.2487 13.9608 10.7941 14.0846 10.3131L14.2296 9.75H14.811H15.7089C15.736 9.504 15.75 9.25377 15.75 9C15.75 8.74623 15.736 8.49601 15.7089 8.25H14.811H14.2296L14.0846 7.68694C13.9608 7.20586 13.7704 6.7513 13.5236 6.33359L13.2277 5.83293L13.6389 5.42172L14.2739 4.78672C14.1195 4.59373 13.9548 4.40938 13.7804 4.23451L13.7801 4.2342L13.7658 4.21987C13.5908 4.04544 13.4064 3.88055 13.2133 3.72606L12.5783 4.36106L12.1671 4.77227L11.6664 4.47643C11.2487 4.2296 10.7941 4.03918 10.3131 3.91535L9.75 3.77043V3.18903V2.29113C9.50399 2.26397 9.25377 2.25 9 2.25V6.75C10.2426 6.75 11.25 7.75736 11.25 9C11.25 10.2426 10.2426 11.25 9 11.25V15.75C9.25377 15.75 9.50399 15.736 9.75 15.7089V14.811V14.2296L10.3131 14.0846C10.7941 13.9608 11.2487 13.7704 11.6664 13.5236L12.1671 13.2277L12.5783 13.6389L13.2133 14.2739C13.4063 14.1196 13.5906 13.9548 13.7655 13.7805L13.7658 13.7802L13.7802 13.7658ZM3 3.75H6.75V6.75H3C2.58579 6.75 2.25 6.41421 2.25 6V4.5C2.25 4.08579 2.58579 3.75 3 3.75ZM6.75 7.5H3C2.17157 7.5 1.5 6.82843 1.5 6V4.5C1.5 3.67157 2.17157 3 3 3H6.75V1.875C6.75 1.66789 6.91789 1.5 7.125 1.5H7.5V1.875V2.25V3V3.75V6.75V7.5V10.5V11.25V14.25V15V15.75V16.125V16.5H7.125C6.91789 16.5 6.75 16.3321 6.75 16.125V15H3C2.17157 15 1.5 14.3284 1.5 13.5V12C1.5 11.1716 2.17157 10.5 3 10.5H6.75V7.5ZM6.75 11.25H3C2.58579 11.25 2.25 11.5858 2.25 12V13.5C2.25 13.9142 2.58579 14.25 3 14.25H6.75V11.25Z" fill="#3283BD"/>
</svg>
