<svg width="32" height="32" viewBox="0 0 32 32" fill="none" xmlns="http://www.w3.org/2000/svg">
<path fill-rule="evenodd" clip-rule="evenodd" d="M2 2H30V30H2V2ZM0 0H2H30H32V2V30V32H30H2H0V30V2V0ZM23.324 24.632C23.636 24.992 23.792 25.448 23.792 26H24.476V17H26.168V16.28H17.528V17H19.796V19.664C19.796 23.768 18.644 25.82 16.34 25.82C14.876 25.82 13.76 25.088 12.992 23.624C12.248 22.16 11.876 19.652 11.876 16.1C11.876 12.524 12.248 9.968 12.992 8.432C13.736 6.872 14.828 6.092 16.268 6.092C18.14 6.092 19.784 6.812 21.2 8.252C22.64 9.692 23.36 11.324 23.36 13.148H24.08V5.84H23.396C23.396 6.128 23.3 6.428 23.108 6.74C22.916 7.028 22.676 7.172 22.388 7.172C22.1 7.172 21.308 6.872 20.012 6.272C18.74 5.672 17.492 5.372 16.268 5.372C9.476 5.372 6.08 9.008 6.08 16.28C6.08 19.76 6.968 22.34 8.744 24.02C10.544 25.7 13.076 26.54 16.34 26.54C17.3 26.54 18.116 26.336 18.788 25.928C19.484 25.496 20.084 25.076 20.588 24.668C21.116 24.26 21.62 24.056 22.1 24.056C22.604 24.056 23.012 24.248 23.324 24.632Z" fill="white"/>
</svg>
