<svg width="32" height="32" viewBox="0 0 32 32" fill="none" xmlns="http://www.w3.org/2000/svg">
<rect x="3.5" y="3.5" width="25" height="25" stroke="#FF7F08" stroke-width="3" stroke-linecap="round" stroke-linejoin="round"/>
<path d="M20.272 22C20.272 21.6933 20.1854 21.44 20.012 21.24C19.8387 21.0267 19.612 20.92 19.332 20.92C19.0654 20.92 18.7854 21.0333 18.492 21.26C18.212 21.4867 17.8787 21.72 17.492 21.96C17.1187 22.1867 16.6654 22.3 16.132 22.3C14.3187 22.3 12.912 21.8333 11.912 20.9C10.9254 19.9667 10.432 18.5333 10.432 16.6C10.432 12.56 12.3187 10.54 16.092 10.54C16.772 10.54 17.4654 10.7067 18.172 11.04C18.892 11.3733 19.332 11.54 19.492 11.54C19.652 11.54 19.7854 11.46 19.892 11.3C19.9987 11.1267 20.052 10.96 20.052 10.8H20.432V14.86H20.032C20.032 13.8467 19.632 12.94 18.832 12.14C18.0454 11.34 17.132 10.94 16.092 10.94C15.292 10.94 14.6854 11.3733 14.272 12.24C13.8587 13.0933 13.652 14.5133 13.652 16.5C13.652 18.4733 13.8587 19.8667 14.272 20.68C14.6987 21.4933 15.3187 21.9 16.132 21.9C17.412 21.9 18.052 20.76 18.052 18.48V17H16.792V16.6H21.592V17H20.652V22H20.272Z" fill="#23608C"/>
</svg>
