<svg width="18" height="18" viewBox="0 0 18 18" fill="none" xmlns="http://www.w3.org/2000/svg">
<path fill-rule="evenodd" clip-rule="evenodd" d="M5.25 2.24994C3.59315 2.24994 2.25 3.59308 2.25 5.24994V12.7499C2.25 14.4068 3.59315 15.7499 5.25 15.7499H10.5L10.5 12.75L10.5 12.75C10.5 12.4655 10.5528 12.1934 10.6491 11.9429C10.8676 11.2997 11.4067 10.5055 12.7361 10.5L12.75 10.5H15.75L15.75 5.24994C15.75 3.59308 14.4069 2.24994 12.75 2.24994H5.25ZM16.5 10.5L16.5 11.25L16.5 11.25L16.2348 11.5151L11.5152 16.2348L11.25 16.5H10.5L10.5 16.4999H5.25C3.17893 16.4999 1.5 14.821 1.5 12.7499V5.24994C1.5 3.17887 3.17893 1.49994 5.25 1.49994H12.75C14.8211 1.49994 16.5 3.17887 16.5 5.24994L16.5 10.5L16.5 10.5ZM8.25001 12C7.83579 12 7.50001 11.6642 7.50001 11.25V9.00002H5.25001C4.83579 9.00002 4.50001 8.66424 4.50001 8.25002C4.50001 7.83581 4.83579 7.50002 5.25001 7.50002H7.50001V5.24995C7.50001 4.83574 7.83579 4.49995 8.25001 4.49995C8.66422 4.49995 9.00001 4.83574 9.00001 5.24995V7.50002H11.25C11.6642 7.50002 12 7.83581 12 8.25002C12 8.66424 11.6642 9.00002 11.25 9.00002H9.00001V11.25C9.00001 11.6642 8.66422 12 8.25001 12Z" fill="#3283BD"/>
</svg>
