<svg width="18" height="18" viewBox="0 0 18 18" fill="none" xmlns="http://www.w3.org/2000/svg">
<path fill-rule="evenodd" clip-rule="evenodd" d="M9 1.5C7.34315 1.5 6 2.84315 6 4.5V6.75C6 8.40685 7.34315 9.75 9 9.75C10.6569 9.75 12 8.40685 12 6.75V4.5C12 2.84315 10.6569 1.5 9 1.5ZM5.25 9H5.99973C6.68388 9.91084 7.77314 10.5 9 10.5C10.2267 10.5 11.3158 9.91099 12 9.00037V16.5H3C2.17157 16.5 1.5 15.8284 1.5 15V12.75C1.5 10.6789 3.17893 9 5.25 9ZM14.3571 11.5179C14.3571 11.3699 14.4771 11.25 14.625 11.25C14.7729 11.25 14.8929 11.3699 14.8929 11.5179V12.8571H16.2321C16.3801 12.8571 16.5 12.977 16.5 13.125C16.5 13.2729 16.3801 13.3928 16.2321 13.3928H14.8929V14.7321C14.8929 14.8801 14.7729 15 14.625 15C14.4771 15 14.3571 14.8801 14.3571 14.7321V13.3928H13.0179C12.8699 13.3928 12.75 13.2729 12.75 13.125C12.75 12.977 12.8699 12.8571 13.0179 12.8571H14.3571V11.5179Z" fill="#3283BD"/>
</svg>
