<svg width="18" height="18" viewBox="0 0 18 18" fill="none" xmlns="http://www.w3.org/2000/svg">
<path fill-rule="evenodd" clip-rule="evenodd" d="M9.75 3.18903V3.77043L10.3131 3.91535C10.7941 4.03918 11.2487 4.2296 11.6664 4.47643L12.1671 4.77227L12.5783 4.36106L13.2133 3.72606C13.4064 3.88055 13.5908 4.04544 13.7658 4.21987L13.7801 4.2342L13.7804 4.23451C13.9548 4.40938 14.1195 4.59373 14.2739 4.78672L13.6389 5.42172L13.2277 5.83293L13.5236 6.33359C13.7704 6.7513 13.9608 7.20586 14.0846 7.68694L14.2296 8.25H14.811H15.7089C15.736 8.49601 15.75 8.74623 15.75 9C15.75 9.25377 15.736 9.50399 15.7089 9.75H14.811H14.2296L14.0846 10.3131C13.9608 10.7941 13.7704 11.2487 13.5236 11.6664L13.2277 12.1671L13.6389 12.5783L14.2739 13.2133C14.1195 13.4064 13.9546 13.5908 13.7802 13.7658L13.7658 13.7802L13.7655 13.7805C13.5906 13.9548 13.4063 14.1196 13.2133 14.2739L12.5783 13.6389L12.1671 13.2277L11.6664 13.5236C11.2487 13.7704 10.7941 13.9608 10.3131 14.0846L9.75 14.2296V14.811V15.7089C9.504 15.736 9.25377 15.75 9 15.75C8.74623 15.75 8.49601 15.736 8.25 15.7089V14.811V14.2296L7.68694 14.0846C7.20586 13.9608 6.7513 13.7704 6.33359 13.5236L5.83293 13.2277L5.42172 13.6389L4.78672 14.2739C4.39521 13.9607 4.03928 13.6048 3.72606 13.2133L4.36106 12.5783L4.77227 12.1671L4.47643 11.6664C4.2296 11.2487 4.03918 10.7941 3.91535 10.3131L3.77043 9.75H3.18903H2.29113C2.26397 9.50399 2.25 9.25377 2.25 9C2.25 8.74623 2.26397 8.49601 2.29113 8.25H3.18903H3.77043L3.91535 7.68694C4.03918 7.20586 4.2296 6.7513 4.47642 6.33359L4.77227 5.83293L4.36106 5.42172L3.72605 4.78672C4.03928 4.39521 4.3952 4.03928 4.78671 3.72606L5.42172 4.36106L5.83293 4.77227L6.33359 4.47643C6.7513 4.2296 7.20585 4.03918 7.68694 3.91535L8.25 3.77043V3.18903V2.29113C8.49601 2.26397 8.74623 2.25 9 2.25C9.25377 2.25 9.50399 2.26397 9.75 2.29113V3.18903ZM14.3112 3.70466L14.2953 3.68875C14.0863 3.48036 13.8651 3.28422 13.6328 3.10151C13.3524 2.88102 12.9549 2.92383 12.7027 3.17603L12.048 3.83073C11.5705 3.54859 11.0505 3.33072 10.5 3.18903V2.26308C10.5 1.90638 10.2491 1.59495 9.89488 1.55283C9.60145 1.51795 9.30282 1.5 9 1.5C8.69718 1.5 8.39855 1.51795 8.10512 1.55283C7.75092 1.59495 7.5 1.90638 7.5 2.26308V3.18903C6.94947 3.33072 6.42952 3.54859 5.95205 3.83073L5.29735 3.17603C5.04515 2.92383 4.64756 2.88102 4.36722 3.10151C3.89671 3.47157 3.47157 3.89672 3.10151 4.36722C2.88102 4.64756 2.92383 5.04515 3.17603 5.29735L3.83073 5.95205C3.54859 6.42952 3.33072 6.94947 3.18903 7.5H2.26308C1.90638 7.5 1.59495 7.75092 1.55283 8.10512C1.51795 8.39855 1.5 8.69718 1.5 9C1.5 9.30282 1.51795 9.60145 1.55283 9.89488C1.59495 10.2491 1.90638 10.5 2.26308 10.5H3.18903C3.33072 11.0505 3.54859 11.5705 3.83073 12.048L3.17603 12.7027C2.92383 12.9549 2.88102 13.3524 3.10151 13.6328C3.47157 14.1033 3.89672 14.5284 4.36722 14.8985C4.64756 15.119 5.04515 15.0762 5.29735 14.824L5.95205 14.1693C6.42952 14.4514 6.94947 14.6693 7.5 14.811V15.7369C7.5 16.0936 7.75092 16.4051 8.10512 16.4472C8.39855 16.4821 8.69718 16.5 9 16.5C9.30282 16.5 9.60145 16.4821 9.89488 16.4472C10.2491 16.4051 10.5 16.0936 10.5 15.7369V14.811C11.0505 14.6693 11.5705 14.4514 12.0479 14.1693L12.7027 14.824C12.9548 15.0762 13.3524 15.119 13.6328 14.8985C13.8651 14.7158 14.0863 14.5197 14.2953 14.3113L14.3113 14.2953C14.5197 14.0863 14.7158 13.8651 14.8985 13.6328C15.119 13.3524 15.0762 12.9549 14.824 12.7027L14.1693 12.048C14.4514 11.5705 14.6693 11.0505 14.811 10.5H15.7369C16.0936 10.5 16.4051 10.2491 16.4472 9.89488C16.4821 9.60145 16.5 9.30282 16.5 9C16.5 8.69718 16.4821 8.39855 16.4472 8.10512C16.4051 7.75092 16.0936 7.5 15.7369 7.5H14.811C14.6693 6.94947 14.4514 6.42952 14.1693 5.95205L14.824 5.29735C15.0762 5.04515 15.119 4.64757 14.8985 4.36723C14.7158 4.13492 14.5196 3.91368 14.3112 3.70466ZM9 11.25C10.2426 11.25 11.25 10.2426 11.25 9C11.25 7.75736 10.2426 6.75 9 6.75C7.75736 6.75 6.75 7.75736 6.75 9C6.75 10.2426 7.75736 11.25 9 11.25Z" fill="#3283BD"/>
</svg>
