<svg width="24" height="24" viewBox="0 0 24 24" fill="none" xmlns="http://www.w3.org/2000/svg">
<path fill-rule="evenodd" clip-rule="evenodd" d="M4 2C2.89543 2 2 2.89543 2 4H22C22 2.89543 21.1046 2 20 2H4ZM2 6H22V20C22 21.1046 21.1046 22 20 22H4C2.89543 22 2 21.1046 2 20V6ZM5 10C5 9.44772 5.44772 9 6 9H10C10.5523 9 11 9.44772 11 10C11 10.5523 10.5523 11 10 11H6C5.44772 11 5 10.5523 5 10ZM13 14C13 13.4477 13.4477 13 14 13H18C18.5523 13 19 13.4477 19 14C19 14.5523 18.5523 15 18 15H14C13.4477 15 13 14.5523 13 14ZM6 17C5.44772 17 5 17.4477 5 18C5 18.5523 5.44772 19 6 19H10C10.5523 19 11 18.5523 11 18C11 17.4477 10.5523 17 10 17H6ZM14 17C13.4477 17 13 17.4477 13 18C13 18.5523 13.4477 19 14 19H18C18.5523 19 19 18.5523 19 18C19 17.4477 18.5523 17 18 17H14ZM6 13C5.44772 13 5 13.4477 5 14C5 14.5523 5.44772 15 6 15H10C10.5523 15 11 14.5523 11 14C11 13.4477 10.5523 13 10 13H6ZM14 9C13.4477 9 13 9.44772 13 10C13 10.5523 13.4477 11 14 11H18C18.5523 11 19 10.5523 19 10C19 9.44772 18.5523 9 18 9H14Z" fill="#F7F7F7"/>
</svg>
