<svg width="18" height="18" viewBox="0 0 18 18" fill="none" xmlns="http://www.w3.org/2000/svg">
<mask id="path-1-inside-1" fill="white">
<path fill-rule="evenodd" clip-rule="evenodd" d="M11.9718 4.87506H10.5V9.75006C10.5 10.5785 9.82842 11.2501 8.99999 11.2501C8.17156 11.2501 7.49999 10.5785 7.49999 9.75006V4.87506H6.02819C5.66501 4.87506 5.5139 4.4104 5.80762 4.19678L8.77943 2.03547C8.91092 1.93984 9.08906 1.93984 9.22056 2.03547L12.1924 4.19678C12.4861 4.41039 12.335 4.87506 11.9718 4.87506ZM1.5 9.75003C1.5 9.33582 1.83579 9.00003 2.25 9.00003H5.25V9.75003C5.25 11.8211 6.92893 13.5 9 13.5C11.0711 13.5 12.75 11.8211 12.75 9.75003V9.00003H15.75C16.1642 9.00003 16.5 9.33582 16.5 9.75003V12.75C16.5 14.8211 14.8211 16.5 12.75 16.5H5.25C3.17893 16.5 1.5 14.8211 1.5 12.75V9.75003Z"/>
</mask>
<path d="M10.5 4.87506V4.12506H9.74999V4.87506H10.5ZM7.49999 4.87506H8.24999V4.12506H7.49999V4.87506ZM5.80762 4.19678L5.36649 3.59023V3.59023L5.80762 4.19678ZM8.77943 2.03547L8.3383 1.42892V1.42892L8.77943 2.03547ZM9.22056 2.03547L9.66168 1.42892L9.66168 1.42892L9.22056 2.03547ZM12.1924 4.19678L12.6335 3.59023L12.6335 3.59023L12.1924 4.19678ZM5.25 9.00003H6V8.25003H5.25V9.00003ZM12.75 9.00003V8.25003H12V9.00003H12.75ZM10.5 5.62506H11.9718V4.12506H10.5V5.62506ZM11.25 9.75006V4.87506H9.74999V9.75006H11.25ZM8.99999 12.0001C10.2426 12.0001 11.25 10.9927 11.25 9.75006H9.74999C9.74999 10.1643 9.41421 10.5001 8.99999 10.5001V12.0001ZM6.74999 9.75006C6.74999 10.9927 7.75735 12.0001 8.99999 12.0001V10.5001C8.58578 10.5001 8.24999 10.1643 8.24999 9.75006H6.74999ZM6.74999 4.87506V9.75006H8.24999V4.87506H6.74999ZM6.02819 5.62506H7.49999V4.12506H6.02819V5.62506ZM5.36649 3.59023C4.48534 4.23107 4.93865 5.62506 6.02819 5.62506V4.12506C6.39136 4.12506 6.54247 4.58972 6.24875 4.80333L5.36649 3.59023ZM8.3383 1.42892L5.36649 3.59023L6.24875 4.80333L9.22056 2.64202L8.3383 1.42892ZM9.66168 1.42892C9.2672 1.14202 8.73278 1.14202 8.3383 1.42892L9.22056 2.64202C9.08906 2.73765 8.91092 2.73765 8.77943 2.64202L9.66168 1.42892ZM12.6335 3.59023L9.66168 1.42892L8.77943 2.64202L11.7512 4.80333L12.6335 3.59023ZM11.9718 5.62506C13.0613 5.62506 13.5146 4.23107 12.6335 3.59023L11.7512 4.80333C11.4575 4.58972 11.6086 4.12506 11.9718 4.12506V5.62506ZM2.25 8.25003C1.42157 8.25003 0.75 8.9216 0.75 9.75003H2.25V8.25003ZM5.25 8.25003H2.25V9.75003H5.25V8.25003ZM6 9.75003V9.00003H4.5V9.75003H6ZM9 12.75C7.34315 12.75 6 11.4069 6 9.75003H4.5C4.5 12.2353 6.51472 14.25 9 14.25V12.75ZM12 9.75003C12 11.4069 10.6569 12.75 9 12.75V14.25C11.4853 14.25 13.5 12.2353 13.5 9.75003H12ZM12 9.00003V9.75003H13.5V9.00003H12ZM15.75 8.25003H12.75V9.75003H15.75V8.25003ZM17.25 9.75003C17.25 8.9216 16.5784 8.25003 15.75 8.25003V9.75003H17.25ZM17.25 12.75V9.75003H15.75V12.75H17.25ZM12.75 17.25C15.2353 17.25 17.25 15.2353 17.25 12.75H15.75C15.75 14.4069 14.4069 15.75 12.75 15.75V17.25ZM5.25 17.25H12.75V15.75H5.25V17.25ZM0.75 12.75C0.75 15.2353 2.76472 17.25 5.25 17.25V15.75C3.59315 15.75 2.25 14.4069 2.25 12.75H0.75ZM0.75 9.75003V12.75H2.25V9.75003H0.75Z" fill="#3283BD" mask="url(#path-1-inside-1)"/>
</svg>
