<svg width="24" height="24" viewBox="0 0 24 24" fill="none" xmlns="http://www.w3.org/2000/svg">
<path fill-rule="evenodd" clip-rule="evenodd" d="M15.9624 6.50001H14V13C14 14.1046 13.1046 15 12 15C10.8954 15 9.99999 14.1046 9.99999 13V6.50001H8.03758C7.55334 6.50001 7.35187 5.88046 7.74349 5.59564L11.7059 2.71389C11.8812 2.58638 12.1187 2.58638 12.2941 2.71389L16.2565 5.59564C16.6481 5.88046 16.4466 6.50001 15.9624 6.50001ZM2 13C2 12.4477 2.44772 12 3 12H7V13C7 15.7614 9.23858 18 12 18C14.7614 18 17 15.7614 17 13V12H21C21.5523 12 22 12.4477 22 13V17C22 19.7614 19.7614 22 17 22H7C4.23858 22 2 19.7614 2 17V13Z" fill="#F7F7F7"/>
</svg>
